# xmcd CD database file
#
# Track frame offsets:
#	150
#	1189
#	20873
#	39009
#	50936
#	61912
#	78034
#	92023
#	109471
#	122475
#	151365
#	162141
#	181797
#	194195
#	208489
#	226161
#	237121
#	251228
#
# Disc length: 3385 seconds
#
# Revision: 0
# Processed by: cddbd v1.5.1PL2 Copyright (c) Steve Scherf et al.
# Submitted via: CDex 1.50
#
DISCID=ed0d3712
DTITLE=Helicon - Compilation - Stormy Weather
DYEAR=2004
DGENRE=Jazz
TTITLE0=Intro: "Rain
TTITLE1=Billie Holiday - Come Rain Or Come Shine
TTITLE2=Chet Baker - Born To Be Blue
TTITLE3=Nat King Cole - Autumn Leaves
TTITLE4=Dinah Washington - Cry Me A River
TTITLE5=Nina Simone - Ne Me Quitte Pas
TTITLE6=Peggy Lee - Black Coffee
TTITLE7=Lena Horne - Stormy Weather
TTITLE8=Julie London - Around Midnight
TTITLE9=Diana Krall - Boulevard Of Brocken Dreams
TTITLE10=Astrud Gilberto - The Gentle Rain
TTITLE11=Helen Merril - Wild Is The Wind 
TTITLE12=Blossom Dearie - Lover Man (Oh Where You Can Be?)
TTITLE13=Helen Humes - Blue and Sentimental
TTITLE14=Margaret Whiting - Smoke Gets In Your Eyes
TTITLE15=Nancy Wilson - Here's That Rainy Day
TTITLE16=Carmen McRae - My Foolish Heart
TTITLE17=Outro: "Rain"
EXTD=YEAR: 2004
EXTT0=
EXTT1=
EXTT2=
EXTT3=
EXTT4=
EXTT5=
EXTT6=
EXTT7=
EXTT8=
EXTT9=
EXTT10=
EXTT11=
EXTT12=
EXTT13=
EXTT14=
EXTT15=
EXTT16=
EXTT17=
PLAYORDER=
